<svg preserveAspectRatio="none" overflow="visible" style="display: block;" width="22" height="22" viewBox="0 0 22 22" fill="none" xmlns="http://www.w3.org/2000/svg">
<g id="Group">
<path id="Vector" d="M20.5 16.3906V20.4941C17.6219 20.4425 15.1627 19.9448 13.0654 19.1348L16.1865 15.3115L20.5 16.3906ZM5.60938 1.5L6.68945 5.82129L3.07129 8.92188C2.01056 6.25437 1.56864 3.58909 1.50781 1.5H5.60938Z" fill="#050E40" stroke="#050E40"/>
<g id="Vector_2">
<path d="M12.25 19.3437C14.6625 20.3812 17.5525 21 21 21V16L16 14.75L12.25 19.3437ZM12.25 19.3437C7.44875 17.2787 4.53 13.5563 2.875 9.75ZM2.875 9.75C1.5 6.59 1 3.3725 1 1H6L7.25 6L2.875 9.75Z" fill="#050E40"/>
<path d="M12.25 19.3437C14.6625 20.3812 17.5525 21 21 21V16L16 14.75L12.25 19.3437ZM12.25 19.3437C7.44875 17.2787 4.53 13.5563 2.875 9.75M2.875 9.75C1.5 6.59 1 3.3725 1 1H6L7.25 6L2.875 9.75Z" stroke="#050E40" stroke-width="2" stroke-linecap="round" stroke-linejoin="round"/>
</g>
</g>
</svg>
